<svg width="400" height="400" viewBox="0 0 400 400" fill="none" xmlns="http://www.w3.org/2000/svg">
<path d="M0 2C0 0.895429 0.89543 0 2 0H398C399.105 0 400 0.89543 400 2V398C400 399.105 399.105 400 398 400H2C0.895429 400 0 399.105 0 398V2Z" fill="#188752"/>
<path d="M2 1H398V-1H2V1ZM399 2V398H401V2H399ZM398 399H2V401H398V399ZM1 398V2H-1V398H1ZM2 399C1.44771 399 1 398.552 1 398H-1C-1 399.657 0.343143 401 2 401V399ZM399 398C399 398.552 398.552 399 398 399V401C399.657 401 401 399.657 401 398H399ZM398 1C398.552 1 399 1.44771 399 2H401C401 0.343147 399.657 -1 398 -1V1ZM2 -1C0.343147 -1 -1 0.343143 -1 2H1C1 1.44771 1.44771 1 2 1V-1Z" fill="white" fill-opacity="0.1"/>
<path d="M77.444 280V116.2H187.424V146.854H109.268V181.72H179.936V210.736H109.268V249.112H187.424V280H77.444ZM323.305 170.02H291.715C291.715 151.3 280.717 139.366 259.423 139.366C243.979 139.366 230.641 144.28 230.641 158.32C230.641 174.7 251.935 179.848 265.975 183.592C301.075 194.122 323.305 204.418 323.305 234.604C323.305 263.386 300.607 282.34 262.699 282.34C221.281 282.34 197.647 264.79 197.647 225.946H229.705C229.705 244.9 239.299 256.6 261.997 256.6C281.653 256.6 291.715 247.942 291.715 234.604C291.715 217.522 276.973 213.778 253.105 206.29C225.727 198.1 199.987 190.144 199.987 157.852C199.987 132.58 221.515 113.86 259.189 113.86C301.075 113.86 323.305 133.282 323.305 170.02Z" fill="white"/>
</svg>
